<?xml version="1.0" encoding="UTF-8"?>
<svg id="_レイヤー_1" data-name="レイヤー_1" xmlns="http://www.w3.org/2000/svg" version="1.1" viewBox="0 0 1024 1024">
  <!-- Generator: Adobe Illustrator 29.7.1, SVG Export Plug-In . SVG Version: 2.1.1 Build 8)  -->
  <defs>
    <style>
      .st0 {
        fill: #ffb200;
      }

      .st1 {
        fill: #0094ff;
      }
    </style>
  </defs>
  <path class="st1" d="M928.79,811.47c21.55,21.61,78.67,71.32,86,97.71,21.06,75.8-71.84,142.35-137.39,88.33-51.97-42.83-97.21-105.86-149.04-150.33-13.4-15.26-8.73-34.32-5.74-52.38l-52.93-52.22c-129.78,95.33-301.47,112.14-444.88,35.73C15.66,666.87-58.16,399.53,68.21,197.39,229.95-61.34,622.06-55.27,776.46,207.56c84.81,144.37,70.35,334.04-34.93,464.03l55.98,54.35c15.89-6.4,31.84-8.35,46.66,2,22.61,15.78,62.86,61.72,84.61,83.53ZM391.98,93.03C106.74,112.59-11.96,465.6,201.45,656.07c187.15,167.03,485.16,69.49,536.72-173.64,46.45-219.06-125.03-404.56-346.19-389.4Z"/>
  <path class="st0" d="M451.41,159.85c0,7.88.03,39.39.03,46.91,40.22,5.39,75.71,27.74,95.52,63.15,2.5,4.46,20.28,41.33,9.83,41.33h-63.17c-10-18.55-22.07-35.9-44.42-39.32v110.1c162.05,14.2,158.15,205.8,2.18,226.29l.4,48.97c-16.17,0-44.34.02-60.79.02-2.93,0-.98.37-1.01-2.97v-46.2c-47.54-1.06-95.48-28.91-116.23-72-2.12-4.41-16.28-40.07-7.15-40.07h65.15c12.37,23.75,32.37,45.22,60.21,49.15v-107.15c-18.24-8.12-38.22-9.36-57.18-17.76-114.68-50.84-55.98-212.29,57.19-213.24,0-5.51.05-36.68.05-47.19M391.95,366.29v-96.34c-56.56,15.03-66.18,87.39,0,96.34ZM451.18,545.21c64.19-8.61,62.86-86.95-.97-96.37l.97,96.37Z"/>
</svg>